# xmcd
#
# Track frame offsets:
#	150
#	16831
#	35257
#	52473
#	68600
#	85054
#
# Disc length: 1387 seconds
# Revision: 0
# Processed by: cddbd v1.5.2PL0 Copyright (c) Steve Scherf et al.
# Submitted via: dBpowerAMP V12.0
#
DISCID=44056906
DTITLE=The Pussycat Dolls - Doll Domination
DYEAR=2009
DGENRE=Pop/Rock
TTITLE0=Jai Ho! (You Are My Destiny)
TTITLE1=When I Grow Up
TTITLE2=Whatcha Think About That
TTITLE3=Painted Windows
TTITLE4=I Hate This Part
TTITLE5=Hush Hush - Hush Hush
EXTD=
EXTT0=
EXTT1=
EXTT2=
EXTT3=
EXTT4=
EXTT5=
PLAYORDER=
